<svg width="449" height="512" viewBox="0 0 449 512" fill="none" xmlns="http://www.w3.org/2000/svg">
<path d="M160.016 32V64H288.016V32C288.016 14.33 302.316 0 320.016 0C337.716 0 352.016 14.33 352.016 32V64H400.016C426.516 64 448.016 85.49 448.016 112V160H0.015625V112C0.015625 85.49 21.5056 64 48.0156 64H96.0156V32C96.0156 14.33 110.316 0 128.016 0C145.716 0 160.016 14.33 160.016 32ZM0.015625 192H448.016V464C448.016 490.5 426.516 512 400.016 512H48.0156C21.5056 512 0.015625 490.5 0.015625 464V192ZM64.0156 304C64.0156 312.8 71.1756 320 80.0156 320H112.016C120.816 320 128.016 312.8 128.016 304V272C128.016 263.2 120.816 256 112.016 256H80.0156C71.1756 256 64.0156 263.2 64.0156 272V304ZM192.016 304C192.016 312.8 199.216 320 208.016 320H240.016C248.816 320 256.016 312.8 256.016 304V272C256.016 263.2 248.816 256 240.016 256H208.016C199.216 256 192.016 263.2 192.016 272V304ZM336.016 256C327.216 256 320.016 263.2 320.016 272V304C320.016 312.8 327.216 320 336.016 320H368.016C376.816 320 384.016 312.8 384.016 304V272C384.016 263.2 376.816 256 368.016 256H336.016ZM64.0156 432C64.0156 440.8 71.1756 448 80.0156 448H112.016C120.816 448 128.016 440.8 128.016 432V400C128.016 391.2 120.816 384 112.016 384H80.0156C71.1756 384 64.0156 391.2 64.0156 400V432ZM208.016 384C199.216 384 192.016 391.2 192.016 400V432C192.016 440.8 199.216 448 208.016 448H240.016C248.816 448 256.016 440.8 256.016 432V400C256.016 391.2 248.816 384 240.016 384H208.016ZM320.016 432C320.016 440.8 327.216 448 336.016 448H368.016C376.816 448 384.016 440.8 384.016 432V400C384.016 391.2 376.816 384 368.016 384H336.016C327.216 384 320.016 391.2 320.016 400V432Z" fill="white"/>
</svg>