<svg width="481" height="512" viewBox="0 0 481 512" fill="none" xmlns="http://www.w3.org/2000/svg">
<path d="M416.016 0H224.016V512H416.016C451.366 512 480.016 483.35 480.016 448V64C480.016 28.65 451.316 0 416.016 0ZM64.0156 64V104H24.0156C10.7656 104 0.015625 114.8 0.015625 128C0.015625 141.2 10.7656 152 24.0156 152H64.0156V232H24.0156C10.7656 232 0.015625 242.8 0.015625 256C0.015625 269.2 10.7656 280 24.0156 280H64.0156V360H24.0156C10.7656 360 0.015625 370.8 0.015625 384C0.015625 397.2 10.7656 408 24.0156 408H64.0156V448C64.0156 483.35 92.6656 512 128.016 512H192.016V0H128.016C92.6656 0 64.0156 28.65 64.0156 64Z" fill="white"/>
</svg>