<svg width="577" height="384" viewBox="0 0 577 384" fill="none" xmlns="http://www.w3.org/2000/svg">
<path d="M432.016 0H244.916C290.316 31.88 320.016 84.5 320.016 144V384L544.016 384C561.636 384 576.016 369.63 576.016 352.9V144C576.016 64.5 511.516 0 432.016 0ZM512.016 207.1C512.016 215.936 504.854 222.2 496.016 222.2H464.016C455.18 222.2 448.016 215.036 448.016 207.1V160H400.016C391.217 160 384.016 152.801 384.016 144.9C384.016 136.999 391.217 129.8 400.016 129.8H496.016C504.854 129.8 512.016 136.964 512.016 144.9V207.1ZM144.016 0C64.5156 0 0.015625 64.5 0.015625 144V351.1C0.015625 368.72 14.3956 382.2 32.0156 382.2L288.016 384V144C288.016 64.5 223.516 0 144.016 0ZM208.016 160H80.0156C71.1796 160 64.0156 152.836 64.0156 144.9C64.0156 136.964 71.1796 129.8 80.0156 129.8H208.016C216.854 129.8 224.016 136.964 224.016 144.9C224.016 152.836 216.816 160 208.016 160Z" fill="white"/>
</svg>