<svg width="513" height="449" viewBox="0 0 513 449" fill="none" xmlns="http://www.w3.org/2000/svg">
<path d="M163.016 69.8C168.016 29.9 201.916 0 242.016 0C289.916 0 326.116 41.98 321.116 89.5L308.116 186.2C303.116 226.1 270.116 256 229.116 256C182.116 256 144.116 214 150.916 166.5L163.016 69.8ZM242.016 64C234.216 64 227.516 69.9 226.516 77.7L214.416 174.4C213.316 183.8 220.516 192 229.116 192C237.816 192 244.516 186.1 245.516 178.3L257.616 81.6C258.716 72.2 251.416 64 242.016 64ZM103.716 260C101.216 277.5 84.9755 289.1 67.4755 287.7C49.9755 285.5 37.8255 269.5 40.3355 251.1L64.2655 84.5L44.6055 93.2C28.3555 100.4 9.54555 93.2 2.59055 77.1C-4.36545 60.95 3.16955 42.02 19.4155 34.8L91.4156 2.8C102.016 -1.93 114.316 -0.589999 123.516 6.29C132.716 13.18 137.316 24.54 135.716 36.01L103.716 260ZM511.716 283.5C514.216 300.1 502.016 317.2 484.516 319.7L36.5355 383.7C19.0455 386.2 2.83355 374 0.333946 356.5C-2.16545 339 9.99155 322.8 27.4855 320.3L475.516 256.3C492.116 253.8 509.216 265.1 511.716 283.5ZM511.716 379.5C514.216 396.1 502.016 413.2 484.516 415.7L260.516 447.7C243.016 450.2 226.816 438 224.316 420.5C221.816 403 233.116 386.8 251.516 384.3L475.516 352.3C492.116 349.8 509.216 361.1 511.716 379.5ZM507.116 87L499.816 167.4C496.116 208.5 461.616 240 420.316 240C373.416 240 336.616 199.7 340.916 152.1L348.216 72.6C351.916 31.47 386.416 0 427.716 0C474.616 0 511.416 40.29 507.116 87ZM404.616 158.8C403.816 168 411.016 176 420.316 176C428.516 176 435.316 169.8 436.116 161.6L443.416 81.2C444.216 71.1 436.916 64 427.716 64C419.516 64 412.716 70.2 411.916 78.4L404.616 158.8Z" fill="white"/>
</svg>