<svg width="641" height="512" viewBox="0 0 641 512" fill="none" xmlns="http://www.w3.org/2000/svg">
<path d="M320.016 128C328.816 128 336.016 135.2 336.016 144V160H352.016C360.816 160 368.016 167.2 368.016 176C368.016 184.8 360.816 192 352.016 192H320.016C311.216 192 304.016 184.8 304.016 176V144C304.016 135.2 311.216 128 320.016 128ZM476.816 98.06L602.416 125.1C624.416 130.9 640.016 150.3 640.016 172.8V464C640.016 490.5 618.516 512 592.016 512H48.0156C21.5056 512 0.015625 490.5 0.015625 464V172.8C0.015625 150.3 15.6456 130.9 37.6056 125.1L163.216 98.06L302.216 5.37399C312.116 -1.79101 327.016 -1.79101 337.816 5.37399L476.816 98.06ZM256.016 512H384.016V416C384.016 380.7 355.316 352 320.016 352C284.716 352 256.016 380.7 256.016 416V512ZM96.0156 192C87.1756 192 80.0156 199.2 80.0156 208V272C80.0156 280.8 87.1756 288 96.0156 288H128.016C136.816 288 144.016 280.8 144.016 272V208C144.016 199.2 136.816 192 128.016 192H96.0156ZM496.016 272C496.016 280.8 503.216 288 512.016 288H544.016C552.816 288 560.016 280.8 560.016 272V208C560.016 199.2 552.816 192 544.016 192H512.016C503.216 192 496.016 199.2 496.016 208V272ZM96.0156 320C87.1756 320 80.0156 327.2 80.0156 336V400C80.0156 408.8 87.1756 416 96.0156 416H128.016C136.816 416 144.016 408.8 144.016 400V336C144.016 327.2 136.816 320 128.016 320H96.0156ZM496.016 400C496.016 408.8 503.216 416 512.016 416H544.016C552.816 416 560.016 408.8 560.016 400V336C560.016 327.2 552.816 320 544.016 320H512.016C503.216 320 496.016 327.2 496.016 336V400ZM320.016 88C271.416 88 232.016 127.4 232.016 176C232.016 224.6 271.416 264 320.016 264C368.616 264 408.016 224.6 408.016 176C408.016 127.4 368.616 88 320.016 88Z" fill="white"/>
</svg>