<?xml version="1.0" standalone="no"?>
<!DOCTYPE svg PUBLIC "-//W3C//DTD SVG 20010904//EN"
 "http://www.w3.org/TR/2001/REC-SVG-20010904/DTD/svg10.dtd">
<svg version="1.0" xmlns="http://www.w3.org/2000/svg"
 width="700.000000pt" height="700.000000pt" viewBox="0 0 700.000000 700.000000"
 preserveAspectRatio="xMidYMid meet">
<metadata>
Created by potrace 1.14, written by Peter Selinger 2001-2017
</metadata>
<g transform="translate(0.000000,700.000000) scale(0.100000,-0.100000)"
fill="#000000" stroke="none">
<path d="M3205 6993 c-27 -2 -126 -15 -220 -28 -611 -88 -1188 -339 -1685
-733 -135 -107 -449 -426 -554 -562 -434 -563 -673 -1169 -737 -1870 -15 -161
-6 -606 15 -755 92 -651 321 -1194 722 -1715 114 -149 435 -470 584 -584 525
-404 1049 -624 1725 -723 173 -25 716 -25 894 0 661 95 1199 321 1721 723 133
102 465 429 560 552 423 544 646 1069 747 1757 25 173 25 716 0 894 -96 668
-339 1241 -745 1751 -100 125 -400 426 -528 528 -547 437 -1188 696 -1889 762
-101 9 -493 11 -610 3z m635 -489 c694 -80 1317 -380 1802 -867 458 -460 747
-1035 850 -1692 20 -122 22 -179 22 -445 0 -266 -2 -323 -22 -445 -135 -858
-593 -1584 -1302 -2064 -417 -283 -882 -449 -1403 -501 -174 -18 -565 -8 -737
19 -1217 188 -2189 1071 -2484 2256 -100 401 -115 877 -40 1285 224 1229 1193
2199 2424 2425 253 46 635 59 890 29z"/>
<path d="M1637 4623 c-4 -3 -7 -510 -7 -1125 l0 -1118 760 0 760 0 0 200 0
200 -520 0 -520 0 0 265 0 265 480 0 480 0 0 195 0 195 -480 0 -480 0 0 265 0
265 520 0 520 0 0 200 0 200 -753 0 c-415 0 -757 -3 -760 -7z"/>
<path d="M3520 3505 l0 -1127 488 5 c539 5 570 8 748 72 422 150 654 527 654
1058 0 516 -237 893 -654 1042 -178 64 -209 67 -748 72 l-488 5 0 -1127z
m1033 672 c190 -66 291 -180 349 -392 19 -70 22 -105 22 -280 0 -223 -13 -297
-76 -425 -39 -81 -133 -177 -208 -213 -112 -54 -192 -67 -427 -67 l-213 0 0
706 0 706 238 -4 c227 -4 240 -5 315 -31z"/>
</g>
</svg>
