<svg width="1024" height="1024" viewBox="0 0 1024 1024" fill="none" xmlns="http://www.w3.org/2000/svg">
<rect width="1024" height="1024" rx="512" fill="#0E4D93"/>
<rect x="69" y="69" width="886" height="886" rx="443" fill="white"/>
<path d="M239.445 675V347.727H459.97V404.776H308.638V482.759H448.624V539.808H308.638V617.951H460.609V675H239.445ZM630.997 675H514.982V347.727H631.956C664.875 347.727 693.213 354.279 716.97 367.383C740.727 380.38 758.998 399.077 771.782 423.473C784.673 447.869 791.118 477.06 791.118 511.044C791.118 545.135 784.673 574.432 771.782 598.935C758.998 623.437 740.621 642.241 716.651 655.344C692.787 668.448 664.236 675 630.997 675ZM584.176 615.714H628.121C648.575 615.714 665.781 612.092 679.737 604.847C693.799 597.496 704.346 586.151 711.377 570.81C718.515 555.362 722.084 535.44 722.084 511.044C722.084 486.861 718.515 467.099 711.377 451.758C704.346 436.417 693.852 425.124 679.896 417.88C665.941 410.636 648.735 407.013 628.281 407.013H584.176V615.714Z" fill="#0E4D93"/>
</svg>